{"title":"[youshikibi] Wizard Barristers - Benmashi Cecil - 02 (1280x720 h","uid":9500556,"size":399986774,"categoryP":"video","categoryS":"hd___tv_shows","magnet":"?xt=urn:btih:d0a1af314d2e55c1803c8f09b7249e476bb67679&amp;dn=%5Byoushikibi%5D+Wizard+Barristers+-+Benmashi+Cecil+-+02+%281280x720+h&amp;tr=udp%3A%2F%2Ftracker.openbittorrent.com%3A80&amp;tr=udp%3A%2F%2Fopen.demonii.com%3A1337&amp;tr=udp%3A%2F%2Ftracker.coppersurfer.tk%3A6969&amp;tr=udp%3A%2F%2Fexodus.desync.com%3A6969","seeders":1,"leechers":0,"uploader":"youshikibi","files":-1,"time":1390218209,"description":"Anime: Wizard Barristers: Benmashi Cecil\nEpisode: 02\n\n\nVIDEO\n=====\nID : 1\nFormat : MPEG-4 (playable on PS3, Xbox 360, etc.)\nFormat/Info : Advanced Video Codec\nFormat profile : &lt;a class=&quot;__cf_email__&quot; href=&quot;/cdn-cgi/l/email-protection&quot; data-cfemail=&quot;cd85a4aaa58d81f9e3fc&quot;&gt;[email&amp;#160;protected]&lt;/a&gt;&lt;script cf-hash='f9e31' type=&quot;text/javascript&quot;&gt;\n/* &lt;![CDATA[ */!function(){try{var t=&quot;currentScript&quot;in document?document.currentScript:function(){for(var t=document.getElementsByTagName(&quot;script&quot;),e=t.length;e--;)if(t[e].getAttribute(&quot;cf-hash&quot;))return t[e]}();if(t&amp;&amp;t.previousSibling){var e,r,n,i,c=t.previousSibling,a=c.getAttribute(&quot;data-cfemail&quot;);if(a){for(e=&quot;&quot;,r=parseInt(a.substr(0,2),16),n=2;a.length-n;n+=2)i=parseInt(a.substr(n,2),16)^r,e+=String.fromCharCode(i);e=document.createTextNode(e),c.parentNode.replaceChild(e,c)}}}catch(u){}}();/* ]]&gt; */&lt;/script&gt;\nFormat settings, CABAC : Yes\nFormat settings, ReFrames : 2 frames\nCodec ID : avc1\nCodec ID/Info : Advanced Video Coding\nDuration : 23mn 49s\nBit rate : 2 105 Kbps\nMaximum bit rate : 14.6 Mbps\nWidth : 1 280 pixels\nHeight : 720 pixels\nDisplay aspect ratio : 16:9\nFrame rate mode : Constant\nFrame rate : 23.976 fps\nColor space : YUV\nChroma subsampling : 4:2:0\nBit depth : 8 bits\nScan type : Progressive\nBits/(Pixel*Frame) : 0.092\nStream size : 359 MiB (94%)\n\n\nAUDIO\n=====\nID : 2\nFormat : AAC\nFormat/Info : Advanced Audio Codec\nFormat profile : LC\nCodec ID : 40\nDuration : 23mn 49s\nBit rate mode : Variable\nBit rate : 128 Kbps\nMaximum bit rate : 179 Kbps\nChannel count : 2 channels\nChannel positions : Front: L R\nSampling rate : 48.0 KHz\nCompression mode : Lossy\nDelay relative to video : 42ms\nStream size : 21.8 MiB (6%)\n\n\nSUBTITLES\n========\nEnglish subtitles from Doki fansubs\n\n\nscreenshots: &lt;a href=&quot;\nhttps://fapis.com/image?id=10567&quot; rel=&quot;nofollow&quot; target=&quot;_NEW&quot;&gt;\nhttps://fapis.com/image?id=10567&lt;/a&gt;\n &lt;a href=&quot;\nhttp://youshikibi.com/&quot; rel=&quot;nofollow&quot; target=&quot;_NEW&quot;&gt;\nhttp://youshikibi.com/&lt;/a&gt;","torrent":{"xt":"urn:btih:d0a1af314d2e55c1803c8f09b7249e476bb67679","amp;dn":"%5Byoushikibi%5D+Wizard+Barristers+-+Benmashi+Cecil+-+02+%281280x720+h","amp;tr":["udp%3A%2F%2Ftracker.openbittorrent.com%3A80","udp%3A%2F%2Fopen.demonii.com%3A1337","udp%3A%2F%2Ftracker.coppersurfer.tk%3A6969","udp%3A%2F%2Fexodus.desync.com%3A6969"],"infoHash":"d0a1af314d2e55c1803c8f09b7249e476bb67679","infoHashBuffer":{"type":"Buffer","data":[208,161,175,49,77,46,85,193,128,60,143,9,183,36,158,71,107,182,118,121]},"announce":[],"urlList":[]}}